<svg
              width="12"
              height="11"
              viewBox="0 0 12 11"
              fill="none"
              xmlns="http://www.w3.org/2000/svg"
            >
              <path
                d="M9.97247 2.92828C9.98545 2.92071 9.99621 2.90987 10.0037 2.89685C10.0112 2.88383 10.0151 2.86907 10.0151 2.85405C10.0151 2.83903 10.0112 2.82427 10.0037 2.81125C9.99621 2.79823 9.98545 2.78739 9.97247 2.77982L6.69095 0.873299C6.48098 0.751594 6.2426 0.6875 5.99991 0.6875C5.75722 0.6875 5.51883 0.751594 5.30886 0.873299L2.02798 2.77982C2.01501 2.78739 2.00425 2.79823 1.99677 2.81125C1.98929 2.82427 1.98535 2.83903 1.98535 2.85405C1.98535 2.86907 1.98929 2.88383 1.99677 2.89685C2.00425 2.90987 2.01501 2.92071 2.02798 2.92828L5.95704 5.23957C5.97026 5.24735 5.98532 5.25146 6.00066 5.25146C6.016 5.25146 6.03105 5.24735 6.04427 5.23957L9.97247 2.92828Z"
                fill="#013237"
              />
              <path
                d="M1.66016 3.51151C1.64705 3.50395 1.63218 3.49998 1.61705 3.5C1.60192 3.50002 1.58706 3.50404 1.57398 3.51165C1.5609 3.51926 1.55006 3.53019 1.54256 3.54333C1.53505 3.55647 1.53115 3.57136 1.53125 3.58649V7.32241C1.53158 7.50245 1.57903 7.67926 1.66888 7.83526C1.75874 7.99127 1.88787 8.12103 2.04344 8.21165L5.52735 10.3006C5.5404 10.3081 5.55521 10.3121 5.57029 10.3121C5.58537 10.3121 5.60018 10.3081 5.61325 10.3006C5.62631 10.2931 5.63716 10.2822 5.64471 10.2692C5.65225 10.2561 5.65624 10.2413 5.65625 10.2262V5.89177C5.65624 5.8767 5.65226 5.8619 5.64472 5.84885C5.63717 5.8358 5.62633 5.82497 5.61328 5.81743L1.66016 3.51151Z"
                fill="#013237"
              />
              <path
                d="M6.34375 5.9079V10.2263C6.34377 10.2413 6.34775 10.2561 6.3553 10.2692C6.36285 10.2822 6.3737 10.2931 6.38676 10.3006C6.39982 10.3081 6.41463 10.3121 6.42971 10.3121C6.44479 10.3121 6.4596 10.3081 6.47266 10.3006L9.95635 8.21167C10.1118 8.12117 10.2409 7.99159 10.3308 7.83578C10.4206 7.67998 10.4682 7.50338 10.4687 7.32351V3.58759C10.4687 3.57253 10.4647 3.55775 10.4571 3.54473C10.4496 3.5317 10.4387 3.5209 10.4256 3.51339C10.4126 3.50588 10.3978 3.50194 10.3827 3.50195C10.3677 3.50197 10.3529 3.50594 10.3398 3.51347L6.38672 5.83378C6.3737 5.8413 6.36288 5.8521 6.35534 5.8651C6.3478 5.87811 6.3438 5.89287 6.34375 5.9079Z"
                fill="#013237"
              />
            </svg>