<svg width="31" height="31" viewBox="0 0 31 31" fill="none" xmlns="http://www.w3.org/2000/svg">
<path d="M21.1399 8.28516C18.6986 8.28516 17.6669 9.45008 15.9667 9.45008C14.2236 9.45008 12.894 8.29363 10.7785 8.29363C8.70778 8.29363 6.49964 9.55785 5.09738 11.7115C3.12839 14.7485 3.46261 20.4684 6.65161 25.3412C7.79232 27.0856 9.31567 29.0418 11.3137 29.063H11.35C13.0865 29.063 13.6024 27.926 15.9922 27.9126H16.0285C18.3826 27.9126 18.8548 29.0564 20.5841 29.0564H20.6204C22.6184 29.0352 24.2235 26.8676 25.3642 25.1299C26.1852 23.8802 26.4904 23.2529 27.1201 21.8392C22.507 20.0882 21.7659 13.5485 26.3281 11.0413C24.9356 9.2975 22.9787 8.28758 21.1338 8.28758L21.1399 8.28516Z" fill="#2D3748"/>
<path d="M20.5999 1.93945C19.1467 2.03814 17.4514 2.9633 16.4585 4.17121C15.5575 5.2659 14.8164 6.88976 15.1071 8.46459H15.2233C16.7709 8.46459 18.3548 7.53277 19.2799 6.33879C20.1712 5.20232 20.8469 3.59178 20.5999 1.93945Z" fill="#2D3748"/>
</svg>
