<svg
              width="12"
              height="11"
              viewBox="0 0 12 11"
              fill="none"
              xmlns="http://www.w3.org/2000/svg"
            >
              <path
                d="M6 1.03125C3.53596 1.03125 1.53125 3.03596 1.53125 5.5C1.53125 7.96404 3.53596 9.96875 6 9.96875C8.46404 9.96875 10.4687 7.96404 10.4687 5.5C10.4687 3.03596 8.46404 1.03125 6 1.03125ZM4.92105 3.54105C5.19326 3.25252 5.57633 3.09375 6 3.09375C6.42367 3.09375 6.8033 3.25359 7.07658 3.54363C7.35351 3.83754 7.48822 4.23242 7.45643 4.65695C7.39283 5.5 6.73971 6.1875 6 6.1875C5.26029 6.1875 4.60588 5.5 4.54357 4.65674C4.51199 4.22877 4.64648 3.8326 4.92105 3.54105ZM6 9.28125C5.49522 9.28158 4.99551 9.18055 4.5305 8.98414C4.0655 8.78773 3.64467 8.49995 3.29297 8.13785C3.4944 7.8506 3.75105 7.60636 4.04793 7.41941C4.59557 7.06836 5.28865 6.875 6 6.875C6.71135 6.875 7.40443 7.06836 7.95143 7.41941C8.24855 7.60628 8.50543 7.85052 8.70703 8.13785C8.35536 8.49998 7.93454 8.7878 7.46953 8.98421C7.00451 9.18062 6.50479 9.28163 6 9.28125Z"
                fill="#013237"
              />
            </svg>