<svg width="91" height="70" viewBox="0 0 91 70" fill="none" xmlns="http://www.w3.org/2000/svg">
<g filter="url(#filter0_d_193_2231)">
<rect x="23" y="10" width="50" height="50" rx="25" fill="#013237"/>
<path d="M40.3312 27.0525C39.6809 27.225 39.1992 27.6327 39.0547 28.1282C38.8219 28.9342 39.3478 29.6838 40.3312 29.9378C40.5841 30.0037 40.5881 30.0037 48.0866 29.9974L55.593 29.988L55.9021 29.8688C56.3838 29.6838 56.6969 29.4172 56.8976 29.0158C57.0341 28.7461 57.0341 28.2505 56.8976 27.9808C56.6969 27.5794 56.3838 27.3128 55.9021 27.1278L55.593 27.0086L48.0665 27.0023C40.9574 26.9961 40.5279 26.9992 40.3312 27.0525Z" fill="#FBFFFB"/>
<path d="M40.3325 34.0525C39.3491 34.3159 38.8193 35.0748 39.0561 35.8713C39.1725 36.2539 39.4976 36.5957 39.9351 36.7995C40.4168 37.019 39.7866 37.0033 48.0953 36.9971L55.5931 36.9877L55.9022 36.8685C56.3839 36.6835 56.697 36.4169 56.8976 36.0155C57.0341 35.7459 57.0341 35.2504 56.8976 34.9807C56.697 34.5793 56.3839 34.3128 55.9022 34.1278L55.5931 34.0086L48.0672 34.0023C40.9586 33.9961 40.5292 33.9992 40.3325 34.0525Z" fill="#FBFFFB"/>
<path d="M40.2773 41.072C39.7838 41.2161 39.4347 41.4604 39.206 41.8237C38.6724 42.6662 39.2181 43.6747 40.3495 43.9441C40.6063 44.0036 40.7427 44.0036 48.093 43.9973L55.5757 43.9879L55.8886 43.872C56.5787 43.6152 57 43.0953 57 42.5002C57 41.9051 56.5787 41.3852 55.8886 41.1284L55.5757 41.0125L48.0529 41.0063L40.5301 41L40.2773 41.072Z" fill="#FBFFFB"/>
</g>
<defs>
<filter id="filter0_d_193_2231" x="0" y="-6" width="96" height="96" filterUnits="userSpaceOnUse" color-interpolation-filters="sRGB">
<feFlood flood-opacity="0" result="BackgroundImageFix"/>
<feColorMatrix in="SourceAlpha" type="matrix" values="0 0 0 0 0 0 0 0 0 0 0 0 0 0 0 0 0 0 127 0" result="hardAlpha"/>
<feOffset dy="7"/>
<feGaussianBlur stdDeviation="11.5"/>
<feComposite in2="hardAlpha" operator="out"/>
<feColorMatrix type="matrix" values="0 0 0 0 0 0 0 0 0 0 0 0 0 0 0 0 0 0 0.05 0"/>
<feBlend mode="normal" in2="BackgroundImageFix" result="effect1_dropShadow_193_2231"/>
<feBlend mode="normal" in="SourceGraphic" in2="effect1_dropShadow_193_2231" result="shape"/>
</filter>
</defs>
</svg>














