<svg width="571" height="83" viewBox="0 0 571 83" fill="none" xmlns="http://www.w3.org/2000/svg">
<path d="M29.7168 83H0V5.34058e-05H29.9623C38.3944 5.34058e-05 45.653 1.66167 51.7383 4.98492C57.8235 8.28113 62.5034 13.0228 65.778 19.21C69.0799 25.3972 70.7308 32.8002 70.7308 41.419C70.7308 50.0648 69.0799 57.4948 65.778 63.709C62.5034 69.9232 57.7962 74.6919 51.6564 78.0151C45.5439 81.3384 38.2306 83 29.7168 83ZM17.7236 67.9644H28.98C34.2193 67.9644 38.6263 67.0457 42.2011 65.2085C45.8031 63.3443 48.5046 60.4668 50.3056 56.5762C52.1339 52.6585 53.0481 47.6061 53.0481 41.419C53.0481 35.2858 52.1339 30.274 50.3056 26.3833C48.5046 22.4927 45.8167 19.6288 42.242 17.7915C38.6673 15.9543 34.2602 15.0357 29.0209 15.0357H17.7236V67.9644ZM80.4018 83V5.34058e-05H136.888V14.4683H98.1255V34.2456H133.982V48.7139H98.1255V68.5317H137.052V83H80.4018ZM166.391 83L142.405 5.34058e-05H161.766L175.642 57.6704H176.337L191.646 5.34058e-05H208.224L223.491 57.792H224.228L238.104 5.34058e-05H257.465L233.479 83H216.205L200.242 28.7339H199.587L183.664 83H166.391ZM281.217 5.34058e-05V41.5V83H263.493V41.5V5.34058e-05H281.217ZM306.79 83H287.797L316.736 5.34058e-05H339.576L368.475 83H349.482L328.484 18.9668H327.829L306.79 83ZM305.603 50.3755H350.464V64.0737H305.603V50.3755ZM375.106 83V5.34058e-05H408.18C414.51 5.34058e-05 419.913 1.12131 424.389 3.36382C428.891 5.57931 432.316 8.72693 434.663 12.8067C437.037 16.8594 438.224 21.6281 438.224 27.1128C438.224 32.6245 437.023 37.3662 434.622 41.3379C432.22 45.2826 428.741 48.3086 424.184 50.416C419.654 52.5235 414.169 53.5772 407.729 53.5772H385.585V39.4737H404.864C408.248 39.4737 411.058 39.0144 413.296 38.0957C415.534 37.1771 417.198 35.7992 418.29 33.9619C419.409 32.1247 419.968 29.8417 419.968 27.1128C419.968 24.357 419.409 22.0334 418.29 20.1421C417.198 18.2509 415.52 16.8189 413.255 15.8462C411.018 14.8466 408.193 14.3467 404.782 14.3467H392.83V83H375.106ZM420.377 45.2285L441.212 83H421.646L401.262 45.2285H420.377ZM484.96 83H465.967L494.906 5.34058e-05H517.746L546.645 83H527.652L506.654 18.9668H505.999L484.96 83ZM483.773 50.3755H528.634V64.0737H483.773V50.3755ZM571 5.34058e-05V83H553.276V5.34058e-05H571Z" fill="white"/>
</svg>
